<svg version="1.0" xmlns="http://www.w3.org/2000/svg" width="485.333" height="405.333" viewBox="0 0 364 304" fill="#0d1117" stroke="white"><path d="M0 152v152h364V0H0v152zM232 47.7c0 .3-19.7 38.6-43.7 84.9L144.5 217h-5.7c-3.2 0-5.8-.3-5.8-.8 0-.4 18.7-36.3 41.4-79.7l41.4-79-49.9-.3L116 57V47h58c31.9 0 58 .3 58 .7zm21-.4c0 .1-18.7 36-41.5 79.7L170 206.5l25 .3 25 .2v10h-33.1c-29.3 0-33-.2-32.7-1.5.2-.9 19.9-39.1 43.8-85l43.5-83.4 5.8-.1c3.1 0 5.7.1 5.7.3zm-50 17.1c0 .3-18.4 35.7-40.9 78.8-22.6 43.1-41.3 79.1-41.6 80-.7 1.7 2.3 1.8 53.9 1.8H229v-26h-22.5c-12.4 0-22.5-.2-22.5-.5 0-.2 1-2.5 2.2-5l2.2-4.5 25.1.2 25 .3.3 22.7.2 22.8h-68.1c-37.4 0-67.9-.4-67.7-.8.2-.5 18.9-36.5 41.6-80 22.6-43.5 41.2-79.3 41.2-79.6s-13.5-.6-30-.6h-30v9h47l-2.5 5-2.5 5h-52V64h43.5c23.9 0 43.5.2 43.5.4z"/></svg>